<svg width="226" height="62" viewBox="0 0 226 62" fill="none" xmlns="http://www.w3.org/2000/svg">
<path d="M35.8053 60.4442C32.872 60.2405 30.4077 59.4716 29.0568 58.477L29.0543 58.4752L7.18637 42.231C-0.333021 36.6454 -0.333021 25.3546 7.18637 19.769L29.0543 3.52486L29.0562 3.52344C30.407 2.52864 32.8715 1.75958 35.8053 1.5558V0C32.649 0.205091 29.8244 1.03078 28.1386 2.27363L6.26616 18.5211C-2.08872 24.7273 -2.08872 37.2727 6.26616 43.4789L28.1386 59.7264C29.8244 60.9693 32.649 61.7949 35.8053 62V60.4442Z" fill="url(#paint0_linear_495_2011)"/>
<mask id="path-2-inside-1_495_2011" fill="white">
<path d="M35.8057 0H189.806V62H35.8057V0Z"/>
</mask>
<path d="M35.8057 1.54683H189.806V-1.54683H35.8057V1.54683ZM189.806 60.4532H35.8057V63.5468H189.806V60.4532Z" fill="url(#paint1_linear_495_2011)" mask="url(#path-2-inside-1_495_2011)"/>
<path d="M189.806 60.4442C192.739 60.2405 195.203 59.4716 196.554 58.477L196.557 58.4752L218.424 42.231C225.944 36.6454 225.944 25.3546 218.424 19.769L196.557 3.52486L196.555 3.52344C195.204 2.52864 192.739 1.75958 189.806 1.5558V0C192.962 0.205091 195.786 1.03078 197.472 2.27363L219.345 18.5211C227.7 24.7273 227.7 37.2727 219.345 43.4789L197.472 59.7264C195.786 60.9693 192.962 61.7949 189.806 62V60.4442Z" fill="url(#paint2_linear_495_2011)"/>
<defs>
<linearGradient id="paint0_linear_495_2011" x1="1.49189" y1="12.4" x2="41.0213" y2="15.5706" gradientUnits="userSpaceOnUse">
<stop stop-color="#8AE6CF"/>
<stop offset="1" stop-color="#7C3AE7"/>
</linearGradient>
<linearGradient id="paint1_linear_495_2011" x1="42.4057" y1="31.492" x2="185.956" y2="31.492" gradientUnits="userSpaceOnUse">
<stop stop-color="#7D46E5"/>
<stop offset="0.51" stop-color="#89DFD0" stop-opacity="0"/>
<stop offset="0.985" stop-color="#7D46E5"/>
</linearGradient>
<linearGradient id="paint2_linear_495_2011" x1="224.119" y1="12.4" x2="184.59" y2="15.5706" gradientUnits="userSpaceOnUse">
<stop stop-color="#8AE6CF"/>
<stop offset="1" stop-color="#7C3AE7"/>
</linearGradient>
</defs>
</svg>
