<svg width="193" height="64" viewBox="0 0 193 64" fill="none" xmlns="http://www.w3.org/2000/svg">
<path d="M25.6 3.69504C29.5603 1.40854 34.4397 1.40854 38.4 3.69504L53.3128 12.305C57.2731 14.5915 59.7128 18.8171 59.7128 23.3901V40.6099C59.7128 45.1829 57.2731 49.4085 53.3128 51.695L38.4 60.305C34.4397 62.5915 29.5603 62.5915 25.6 60.305L10.6872 51.695C6.72685 49.4085 4.28719 45.1829 4.28719 40.6099V23.3901C4.28719 18.8171 6.72685 14.5915 10.6872 12.305L25.6 3.69504Z" fill="white"/>
<path fill-rule="evenodd" clip-rule="evenodd" d="M25.6 3.69498C29.5603 1.40848 34.4396 1.40848 38.4 3.69498L53.3128 12.3049C57.2731 14.5914 59.7128 18.817 59.7128 23.39V40.6099C59.7128 45.1829 57.2731 49.4085 53.3128 51.695L38.4 60.3049C34.4396 62.5914 29.5603 62.5914 25.6 60.3049L10.6872 51.695C6.72684 49.4085 4.28717 45.1829 4.28717 40.6099V23.39C4.28717 18.817 6.72684 14.5914 10.6872 12.3049L25.6 3.69498ZM42.5592 16.5627C38.5118 16.6681 35.4484 18.8615 29.479 24.1325C26.2354 26.4657 24.6517 25.3701 21.9184 22.48C24.6506 23.4625 26.0837 23.1488 28.482 21.2085C36.226 13.8766 38.7342 14.2692 42.5592 16.5627ZM42.686 17.8293C40.4255 18.2918 38.7901 18.7896 37.5731 19.7134C36.3547 20.6383 35.5593 21.9869 34.971 24.142L34.9704 24.1439L34.9702 24.1458C34.3032 28.7383 34.6621 31.2025 35.8214 35.5124C36.4652 38.6161 36.6555 40.7508 36.1732 42.2737C35.6925 43.7914 34.5413 44.7072 32.4804 45.3665L25.7026 46.6666L22.3846 48.9622L29.2724 48.2198C32.913 47.6039 35.4525 46.7428 37.0779 44.7748C38.7068 42.8025 39.4117 39.7254 39.4015 34.6921L39.4014 34.6899L39.401 34.6864C38.4474 29.4178 38.1641 25.8803 38.6742 23.3286C39.1836 20.7808 40.4845 19.2142 42.7086 17.8879L42.6973 17.8586L42.686 17.8293ZM32.2812 23.5782L32.3229 23.4769L32.2333 23.54C30.4152 24.8215 29.1552 25.9996 28.8004 28.1149C28.4464 30.2256 28.9948 33.2647 30.7708 38.2658C31.1697 39.7463 31.2946 40.8389 31.0734 41.8211C30.8522 42.8031 30.284 43.6791 29.2869 44.7237L29.3206 44.7758C31.1871 44.1131 32.5388 43.5289 33.3195 42.6187C34.1032 41.7051 34.3071 40.4693 33.8982 38.5185L33.8979 38.5169L33.8974 38.5154C31.5052 30.9558 30.7484 27.2944 32.2812 23.5782Z" fill="url(#paint0_linear_398_1426)"/>
<path d="M82.6232 52.7224C76.9468 52.7224 72.9734 50.4347 70.7029 45.8593L76.8436 42.3503C77.9789 44.6208 79.9054 45.756 82.6232 45.756C84.4809 45.756 85.8742 45.326 86.803 44.466C87.7663 43.5715 88.2479 42.3331 88.2479 40.7506V15.878H95.3175V40.7506C95.3175 44.5348 94.1306 47.4761 91.7569 49.5747C89.4176 51.6732 86.373 52.7224 82.6232 52.7224ZM132.128 47.3041C128.481 50.9163 124.043 52.7224 118.814 52.7224C113.585 52.7224 109.147 50.9163 105.501 47.3041C101.888 43.6231 100.082 39.1681 100.082 33.939C100.082 28.6755 101.888 24.2376 105.501 20.6254C109.147 16.9788 113.585 15.1555 118.814 15.1555C124.043 15.1555 128.481 16.9788 132.128 20.6254C135.774 24.2376 137.598 28.6755 137.598 33.939C137.598 39.2025 135.774 43.6575 132.128 47.3041ZM110.506 42.4535C112.708 44.6552 115.477 45.756 118.814 45.756C122.151 45.756 124.92 44.6552 127.122 42.4535C129.358 40.2173 130.476 37.3792 130.476 33.939C130.476 30.4988 129.358 27.6606 127.122 25.4245C124.886 23.1884 122.117 22.0703 118.814 22.0703C115.512 22.0703 112.742 23.1884 110.506 25.4245C108.27 27.6606 107.152 30.4988 107.152 33.939C107.152 37.3792 108.27 40.2173 110.506 42.4535ZM142.603 52V15.878H149.724V52H142.603ZM177.31 37.9124V15.878H184.431V52H179.013L163.532 29.914V52H156.41V15.878H161.829L177.31 37.9124Z" fill="url(#paint1_linear_398_1426)"/>
<rect x="81.707" y="13.8184" width="19.2155" height="6.97337" fill="url(#paint2_linear_398_1426)"/>
<path d="M86.921 46.7224C81.2447 46.7224 77.2713 44.4347 75.0007 39.8593L81.1415 36.3503C82.2768 38.6208 84.2033 39.756 86.921 39.756C88.7787 39.756 90.172 39.326 91.1009 38.466C92.0641 37.5715 92.5457 36.3331 92.5457 34.7506V9.87796H99.6153V34.7506C99.6153 38.5348 98.4285 41.4761 96.0547 43.5747C93.7154 45.6732 90.6708 46.7224 86.921 46.7224ZM136.426 41.3041C132.779 44.9163 128.341 46.7224 123.112 46.7224C117.883 46.7224 113.445 44.9163 109.798 41.3041C106.186 37.6231 104.38 33.1681 104.38 27.939C104.38 22.6755 106.186 18.2376 109.798 14.6254C113.445 10.9788 117.883 9.15552 123.112 9.15552C128.341 9.15552 132.779 10.9788 136.426 14.6254C140.072 18.2376 141.895 22.6755 141.895 27.939C141.895 33.2025 140.072 37.6575 136.426 41.3041ZM114.804 36.4535C117.006 38.6552 119.775 39.756 123.112 39.756C126.449 39.756 129.218 38.6552 131.42 36.4535C133.656 34.2173 134.774 31.3792 134.774 27.939C134.774 24.4988 133.656 21.6606 131.42 19.4245C129.184 17.1884 126.415 16.0703 123.112 16.0703C119.809 16.0703 117.04 17.1884 114.804 19.4245C112.568 21.6606 111.45 24.4988 111.45 27.939C111.45 31.3792 112.568 34.2173 114.804 36.4535ZM146.901 46V9.87796H154.022V46H146.901ZM181.608 31.9124V9.87796H188.729V46H183.31L167.83 23.914V46H160.708V9.87796H166.127L181.608 31.9124Z" fill="#778692" fill-opacity="0.01"/>
<rect x="86.0049" y="7.81836" width="19.2155" height="6.97337" fill="#778692" fill-opacity="0.01"/>
<defs>
<linearGradient id="paint0_linear_398_1426" x1="6.66255" y1="32.4764" x2="58.3272" y2="32.4764" gradientUnits="userSpaceOnUse">
<stop stop-color="#C8C8C8"/>
<stop offset="1" stop-color="#878787"/>
</linearGradient>
<linearGradient id="paint1_linear_398_1426" x1="74.1" y1="38.492" x2="185.025" y2="38.492" gradientUnits="userSpaceOnUse">
<stop stop-color="#C8C8C8"/>
<stop offset="1" stop-color="#878787"/>
</linearGradient>
<linearGradient id="paint2_linear_398_1426" x1="82.5306" y1="17.3604" x2="100.442" y2="17.3604" gradientUnits="userSpaceOnUse">
<stop stop-color="#C8C8C8"/>
<stop offset="1" stop-color="#878787"/>
</linearGradient>
</defs>
</svg>
