<svg width="114" height="66" viewBox="0 0 114 66" fill="none" xmlns="http://www.w3.org/2000/svg">
<path d="M74.7471 40.8441C72.3597 40.8441 70.6885 39.8819 69.7336 37.9576L72.3163 36.4817C72.7938 37.4367 73.604 37.9141 74.7471 37.9141C75.5284 37.9141 76.1144 37.7333 76.5051 37.3716C76.9102 36.9954 77.1128 36.4745 77.1128 35.8089V25.3477H80.0862V35.8089C80.0862 37.4005 79.587 38.6376 78.5886 39.5202C77.6047 40.4028 76.3242 40.8441 74.7471 40.8441ZM91.7943 39.1947C90.6946 40.2943 89.3345 40.8441 87.714 40.8441C86.0935 40.8441 84.7334 40.2943 83.6337 39.1947C82.5341 38.095 81.9842 36.7349 81.9842 35.1144C81.9842 33.5083 82.5341 32.1554 83.6337 31.0558C84.7478 29.9417 86.1079 29.3846 87.714 29.3846C89.3201 29.3846 90.6802 29.9417 91.7943 31.0558C92.9084 32.1699 93.4654 33.5228 93.4654 35.1144C93.4654 36.7204 92.9084 38.0805 91.7943 39.1947ZM85.6087 37.263C86.173 37.8273 86.8748 38.1095 87.714 38.1095C88.5532 38.1095 89.2549 37.8273 89.8192 37.263C90.3835 36.6987 90.6657 35.9825 90.6657 35.1144C90.6657 34.2462 90.3835 33.53 89.8192 32.9657C89.2549 32.4014 88.5532 32.1193 87.714 32.1193C86.8748 32.1193 86.173 32.4014 85.6087 32.9657C85.0589 33.5445 84.784 34.2607 84.784 35.1144C84.784 35.9681 85.0589 36.6843 85.6087 37.263ZM96.8241 28.3863C96.3611 28.3863 95.9559 28.2199 95.6087 27.8871C95.2759 27.5398 95.1095 27.1347 95.1095 26.6717C95.1095 26.2087 95.2759 25.8035 95.6087 25.4563C95.9559 25.109 96.3611 24.9354 96.8241 24.9354C97.3016 24.9354 97.7067 25.109 98.0395 25.4563C98.3867 25.8035 98.5604 26.2087 98.5604 26.6717C98.5604 27.1347 98.3867 27.5398 98.0395 27.8871C97.7067 28.2199 97.3016 28.3863 96.8241 28.3863ZM98.2348 40.5403H95.4351V29.6885H98.2348V40.5403ZM106.831 29.3846C108.032 29.3846 109.009 29.7825 109.761 30.5783C110.542 31.3886 110.933 32.4882 110.933 33.8773V40.5403H108.133V34.2245C108.133 33.5155 107.938 32.9657 107.547 32.5751C107.171 32.1844 106.65 31.9891 105.985 31.9891C105.247 31.9891 104.661 32.2206 104.227 32.6836C103.807 33.1321 103.597 33.7977 103.597 34.6803V40.5403H100.797V29.6885H103.597V30.9039C104.263 29.891 105.341 29.3846 106.831 29.3846Z" fill="white"/>
<rect x="74.3564" y="24.4055" width="8.07375" height="2.92999" fill="white"/>
<path d="M26.0443 4.20351C30.0734 1.87733 35.0374 1.87733 39.0665 4.20351L54.2382 12.9629C58.2673 15.2891 60.7493 19.588 60.7493 24.2404V41.7591C60.7493 46.4115 58.2673 50.7105 54.2382 53.0367L39.0665 61.796C35.0374 64.1222 30.0734 64.1222 26.0443 61.796L10.8727 53.0367C6.84362 50.7105 4.3616 46.4115 4.3616 41.7591V24.2404C4.3616 19.588 6.84361 15.2891 10.8727 12.9629L26.0443 4.20351Z" fill="#121010"/>
<path fill-rule="evenodd" clip-rule="evenodd" d="M26.0442 4.20363C30.0733 1.87744 35.0373 1.87744 39.0664 4.20362L54.238 12.963C58.2671 15.2892 60.7491 19.5881 60.7491 24.2405V41.7592C60.7491 46.4116 58.2671 50.7106 54.238 53.0368L39.0664 61.7961C35.0373 64.1223 30.0733 64.1223 26.0442 61.7961L10.8725 53.0368C6.84346 50.7106 4.36145 46.4116 4.36145 41.7592V24.2405C4.36145 19.5881 6.84346 15.2892 10.8725 12.963L26.0442 4.20363ZM43.298 17.2947C39.1804 17.4019 36.0638 19.6334 29.9908 24.9959C26.6909 27.3695 25.0797 26.2549 22.299 23.3146C25.0786 24.3142 26.5365 23.9951 28.9765 22.0211C36.8549 14.562 39.4067 14.9614 43.298 17.2947ZM43.4269 18.5837C41.1272 19.0541 39.4635 19.5606 38.2253 20.5004C36.9857 21.4413 36.1766 22.8134 35.578 25.0059L35.5775 25.0079L35.5772 25.0098C34.8986 29.682 35.2637 32.1889 36.4432 36.5737C37.0982 39.7313 37.2918 41.903 36.8011 43.4523C36.3121 44.9963 35.1409 45.9281 33.0442 46.5988L26.1487 47.9215L22.7732 50.257L29.7806 49.5016C33.4843 48.875 36.0679 47.999 37.7215 45.9968C39.3786 43.9903 40.0959 40.8597 40.0855 35.7391C40.0854 35.7373 40.0853 35.7362 40.085 35.7333C39.1148 30.3732 38.8265 26.7743 39.3456 24.1784C39.8638 21.5863 41.1873 19.9926 43.45 18.6432L43.4385 18.6134L43.4269 18.5837ZM32.8415 24.4323L32.884 24.3292L32.7928 24.3935C30.9431 25.6971 29.6613 26.8958 29.3004 29.0477C28.9402 31.1951 29.4981 34.287 31.3049 39.3749C31.7108 40.881 31.8378 41.9926 31.6128 42.9919C31.3877 43.9909 30.8097 44.8821 29.7953 45.9449L29.8296 45.9978C31.7285 45.3237 33.1037 44.7293 33.8979 43.8033C34.6952 42.8738 34.9026 41.6166 34.4866 39.6319L34.4863 39.6304L34.4858 39.6288C32.052 31.938 31.2822 28.213 32.8415 24.4323Z" fill="white"/>
</svg>
