<svg width="1420" height="48" viewBox="0 0 1420 48" fill="none" xmlns="http://www.w3.org/2000/svg">
<rect y="0.5" width="600" height="1" fill="url(#paint0_linear_388_305)"/>
<g clip-path="url(#clip0_388_305)">
<g clip-path="url(#clip1_388_305)">
<mask id="mask0_388_305" style="mask-type:luminance" maskUnits="userSpaceOnUse" x="600" y="0" width="45" height="30">
<path d="M645 0.5H600V29.5H645V0.5Z" fill="white"/>
</mask>
<g mask="url(#mask0_388_305)">
<path d="M600 0.920902L602.468 0.920898C605.51 0.920893 608.438 2.07628 610.661 4.15336L633.705 25.6884C635.928 27.7654 638.857 28.9208 641.899 28.9208H646" stroke="white" stroke-opacity="0.3"/>
</g>
</g>
</g>
<mask id="path-4-inside-1_388_305" fill="white">
<path d="M645 0.5H775V29.5H645V0.5Z"/>
</mask>
<path d="M775 28.5H645V30.5H775V28.5Z" fill="white" fill-opacity="0.3" mask="url(#path-4-inside-1_388_305)"/>
<g clip-path="url(#clip2_388_305)">
<g clip-path="url(#clip3_388_305)">
<mask id="mask1_388_305" style="mask-type:luminance" maskUnits="userSpaceOnUse" x="645" y="0" width="130" height="122">
<path d="M775 0.5H645V121.833H775V0.5Z" fill="white"/>
</mask>
<g mask="url(#mask1_388_305)">
<path d="M-1206.78 1.71208L530.796 1.71191C539.584 1.71191 548.044 5.04969 554.465 11.0501L621.037 73.2623C627.458 79.2628 635.919 82.6006 644.707 82.6006H844.333" stroke="url(#paint1_linear_388_305)" stroke-width="2.88889"/>
</g>
</g>
</g>
<g clip-path="url(#clip4_388_305)">
<g clip-path="url(#clip5_388_305)">
<mask id="mask2_388_305" style="mask-type:luminance" maskUnits="userSpaceOnUse" x="775" y="0" width="45" height="30">
<path d="M820 0.5H775V29.5H820V0.5Z" fill="white"/>
</mask>
<g mask="url(#mask2_388_305)">
<path d="M821 0.920902L818.532 0.920898C815.49 0.920893 812.562 2.07628 810.339 4.15336L787.295 25.6884C785.072 27.7654 782.144 28.9208 779.101 28.9208H775" stroke="white" stroke-opacity="0.3"/>
</g>
</g>
</g>
<rect x="820" y="0.5" width="600" height="1" fill="url(#paint2_linear_388_305)"/>
<g clip-path="url(#clip6_388_305)">
<g clip-path="url(#clip7_388_305)">
<mask id="mask3_388_305" style="mask-type:luminance" maskUnits="userSpaceOnUse" x="664" y="28" width="92" height="17">
<path d="M755.333 28.9099H664.667V44.9099H755.333V28.9099Z" fill="white"/>
</mask>
<g mask="url(#mask3_388_305)">
<path d="M754.267 27.4909L746.355 35.1145C745.162 36.2638 743.571 36.9059 741.914 36.9059H724.939H696.604H679.466C677.907 36.9059 676.402 36.337 675.233 35.306L666.371 27.4909L664.667 25.71" stroke="#4D515E" stroke-width="1.06667"/>
</g>
</g>
</g>
<path d="M735.5 37.2568L730.585 42.5159C729.92 43.1585 729.031 43.5176 728.107 43.5176H718.634C716.565 43.5176 714.559 44.2381 712.961 45.5558L711.106 47.0852C710.887 47.2663 710.57 47.2663 710.35 47.0852L708.495 45.5558C706.897 44.2381 704.892 43.5176 702.822 43.5176H693.259C692.389 43.5176 691.549 43.1995 690.896 42.623L685.951 38.2528L685 37.2568" stroke="#4D515E" stroke-width="1.07"/>
<defs>
<linearGradient id="paint0_linear_388_305" x1="0" y1="1" x2="600" y2="1" gradientUnits="userSpaceOnUse">
<stop stop-color="white" stop-opacity="0"/>
<stop offset="1" stop-color="white" stop-opacity="0.3"/>
</linearGradient>
<linearGradient id="paint1_linear_388_305" x1="-1491.18" y1="-35.8438" x2="845.864" y2="-19.3039" gradientUnits="userSpaceOnUse">
<stop stop-color="white" stop-opacity="0"/>
<stop offset="1" stop-color="white" stop-opacity="0.3"/>
</linearGradient>
<linearGradient id="paint2_linear_388_305" x1="1420" y1="1" x2="820" y2="1" gradientUnits="userSpaceOnUse">
<stop stop-color="white" stop-opacity="0"/>
<stop offset="1" stop-color="white" stop-opacity="0.3"/>
</linearGradient>
<clipPath id="clip0_388_305">
<rect width="45" height="29" fill="white" transform="translate(600 0.5)"/>
</clipPath>
<clipPath id="clip1_388_305">
<rect width="45" height="29" fill="white" transform="translate(600 0.5)"/>
</clipPath>
<clipPath id="clip2_388_305">
<rect width="130" height="29" fill="white" transform="translate(645 0.5)"/>
</clipPath>
<clipPath id="clip3_388_305">
<rect width="130" height="121.333" fill="white" transform="translate(645 0.5)"/>
</clipPath>
<clipPath id="clip4_388_305">
<rect width="45" height="42" fill="white" transform="translate(775 0.5)"/>
</clipPath>
<clipPath id="clip5_388_305">
<rect width="45" height="29" fill="white" transform="translate(775 0.5)"/>
</clipPath>
<clipPath id="clip6_388_305">
<rect width="1420" height="16" fill="white" transform="translate(0 28.9099)"/>
</clipPath>
<clipPath id="clip7_388_305">
<rect width="90.6667" height="16" fill="white" transform="translate(664.667 28.9099)"/>
</clipPath>
</defs>
</svg>
