<svg width="248" height="63" viewBox="0 0 248 63" fill="none" xmlns="http://www.w3.org/2000/svg">
<path d="M36 62.5C33.185 62.5 30.5735 61.6208 29.1098 60.1802L7.34976 38.6004C3.40521 34.6886 3.40521 28.3114 7.34976 24.3996L29.1098 2.81984C30.5735 1.37923 33.185 0.5 36 0.5V62.5Z" fill="#1D1D1D" fill-opacity="0.05"/>
<path d="M36 62.5C33.185 62.5 30.5735 61.6208 29.1098 60.1802L7.34976 38.6004C3.40521 34.6886 3.40521 28.3114 7.34976 24.3996L29.1098 2.81984C30.5735 1.37923 33.185 0.5 36 0.5V62.5Z" fill="white"/>
<rect width="176" height="62" transform="translate(36 0.5)" fill="#1D1D1D" fill-opacity="0.05"/>
<rect width="176" height="62" transform="translate(36 0.5)" fill="white"/>
<path d="M212 62.5C215.609 62.5 218.957 61.6208 220.833 60.1802L241.803 43.9589C249.812 37.7626 249.812 25.2374 241.803 19.0411L220.833 2.81984C218.957 1.37923 215.609 0.5 212 0.5V62.5Z" fill="#1D1D1D" fill-opacity="0.05"/>
<path d="M212 62.5C215.609 62.5 218.957 61.6208 220.833 60.1802L241.803 43.9589C249.812 37.7626 249.812 25.2374 241.803 19.0411L220.833 2.81984C218.957 1.37923 215.609 0.5 212 0.5V62.5Z" fill="white"/>
</svg>
