<svg width="248" height="62" viewBox="0 0 248 62" fill="none" xmlns="http://www.w3.org/2000/svg">
<path d="M35.8053 60.4442C32.872 60.2405 30.4077 59.4716 29.0568 58.477L29.0543 58.4752L7.18637 42.231C-0.333021 36.6454 -0.333021 25.3546 7.18637 19.769L29.0543 3.52486L29.0562 3.52344C30.407 2.52864 32.8715 1.75958 35.8053 1.5558V0C32.649 0.205091 29.8244 1.03078 28.1386 2.27363L6.26616 18.5211C-2.08872 24.7273 -2.08872 37.2727 6.26616 43.4789L28.1386 59.7264C29.8244 60.9693 32.649 61.7949 35.8053 62V60.4442Z" fill="url(#paint0_linear_398_1304)"/>
<mask id="path-2-inside-1_398_1304" fill="white">
<path d="M35.8054 0H211.805V62H35.8054V0Z"/>
</mask>
<path d="M35.8054 1.54683H211.805V-1.54683H35.8054V1.54683ZM211.805 60.4532H35.8054V63.5468H211.805V60.4532Z" fill="url(#paint1_linear_398_1304)" mask="url(#path-2-inside-1_398_1304)"/>
<path d="M211.805 60.4442C214.739 60.2405 217.203 59.4716 218.554 58.477L218.556 58.4752L240.424 42.231C247.944 36.6454 247.944 25.3546 240.424 19.769L218.556 3.52486L218.554 3.52344C217.204 2.52864 214.739 1.75958 211.805 1.5558V0C214.962 0.205091 217.786 1.03078 219.472 2.27363L241.344 18.5211C249.699 24.7273 249.699 37.2727 241.344 43.4789L219.472 59.7264C217.786 60.9693 214.962 61.7949 211.805 62V60.4442Z" fill="url(#paint2_linear_398_1304)"/>
<defs>
<linearGradient id="paint0_linear_398_1304" x1="1.49189" y1="12.4" x2="41.0213" y2="15.5706" gradientUnits="userSpaceOnUse">
<stop stop-color="#8AE6CF"/>
<stop offset="1" stop-color="#7C3AE7"/>
</linearGradient>
<linearGradient id="paint1_linear_398_1304" x1="43.3483" y1="31.492" x2="207.405" y2="31.492" gradientUnits="userSpaceOnUse">
<stop stop-color="#7D46E5"/>
<stop offset="0.51" stop-color="#89DFD0" stop-opacity="0"/>
<stop offset="0.985" stop-color="#7D46E5"/>
</linearGradient>
<linearGradient id="paint2_linear_398_1304" x1="246.119" y1="12.4" x2="206.589" y2="15.5706" gradientUnits="userSpaceOnUse">
<stop stop-color="#8AE6CF"/>
<stop offset="1" stop-color="#7C3AE7"/>
</linearGradient>
</defs>
</svg>
